<svg width="256" height="40" viewBox="0 0 256 40" fill="none" xmlns="http://www.w3.org/2000/svg">
<path d="M10 15.6647L10 22.3314H15V33.998H21.6667L21.6667 22.3314H26.6667L28.3333 15.6647L21.6667 15.6647V12.3314C21.6667 11.8894 21.8423 11.4654 22.1548 11.1529C22.4674 10.8403 22.8913 10.6647 23.3333 10.6647L28.3333 10.6647V3.99805L23.3333 3.99805C21.1232 3.99805 19.0036 4.87602 17.4408 6.43882C15.878 8.00163 15 10.1212 15 12.3314L15 15.6647H10Z" stroke="#111111" stroke-linecap="round" stroke-linejoin="round"/>
<path d="M102 6.66602L81.9998 6.66602C80.1589 6.66602 78.6665 8.1584 78.6665 9.99935V29.9993C78.6665 31.8403 80.1589 33.3327 81.9998 33.3327H102C103.841 33.3327 105.333 31.8403 105.333 29.9993V9.99935C105.333 8.1584 103.841 6.66602 102 6.66602Z" stroke="#111111" stroke-linecap="round" stroke-linejoin="round"/>
<path d="M85.3335 18.334V26.6673" stroke="#111111" stroke-linecap="round" stroke-linejoin="round"/>
<path d="M85.3335 13.334V13.3502" stroke="#111111" stroke-linecap="round" stroke-linejoin="round"/>
<path d="M92 26.6673V18.334" stroke="#111111" stroke-linecap="round" stroke-linejoin="round"/>
<path d="M98.6667 26.6673V21.6673C98.6667 20.7833 98.3155 19.9354 97.6904 19.3103C97.0652 18.6852 96.2174 18.334 95.3333 18.334C94.4493 18.334 93.6014 18.6852 92.9763 19.3103C92.3512 19.9354 92 20.7833 92 21.6673" stroke="#111111" stroke-linecap="round" stroke-linejoin="round"/>
<path d="M180.666 6.68238C179 7.49905 177.366 7.83071 175.666 8.33238C173.798 6.22405 171.028 6.10738 168.366 7.10405C165.705 8.10071 163.961 10.5374 164 13.3324V14.999C158.591 15.1374 153.775 12.674 150.666 8.33238C150.666 8.33238 143.696 20.7207 157.333 26.6657C154.213 28.744 151.101 30.1457 147.333 29.999C152.846 33.004 158.855 34.0374 164.056 32.5274C170.023 30.794 174.926 26.3224 176.808 19.624C177.369 17.5868 177.648 15.4821 177.636 13.369C177.633 12.954 180.153 8.74905 180.666 6.68071V6.68238Z" stroke="#111111" stroke-linecap="round" stroke-linejoin="round"/>
<path d="M243.812 3.75H226.938C222.278 3.75 218.5 7.5276 218.5 12.1875V29.0625C218.5 33.7224 222.278 37.5 226.938 37.5H243.812C248.472 37.5 252.25 33.7224 252.25 29.0625V12.1875C252.25 7.5276 248.472 3.75 243.812 3.75Z" stroke="#111111" stroke-linecap="round" stroke-linejoin="round"/>
<path d="M236 27.5C239.452 27.5 242.25 24.7018 242.25 21.25C242.25 17.7982 239.452 15 236 15C232.548 15 229.75 17.7982 229.75 21.25C229.75 24.7018 232.548 27.5 236 27.5Z" stroke="#111111" stroke-linecap="round" stroke-linejoin="round"/>
<path d="M243.5 12.5V12.501" stroke="#111111" stroke-linecap="round" stroke-linejoin="round"/>
</svg>
